<svg version="1.1" class="clearos-svg clearfoundation app-vendor-clearfoundation app-free app-category-system app-sub-category-backup" viewBox="0 0 400 400" preserveAspectRatio="xMinYMin" xmlns="http://www.w3.org/2000/svg" xmlns:xlink= "http://www.w3.org/1999/xlink">
<path fill="#AA0707" d="M91.666,184.647"/>
<path fill="#AA0707" d="M123.245,247.805"/>
<path fill="#AA0707" d="M91.666,184.647"/>
<path fill="#AA0707" d="M123.245,247.805"/>
<g>
	<path fill="#686868" d="M258.373,19.895H36.223c-18.783,0-34.01,15.229-34.01,34.012v36.133c0,18.759,15.228,34.01,34.01,34.01
		h222.15c18.781,0,34.002-15.251,34.002-34.01V53.906C292.357,35.104,277.154,19.895,258.373,19.895z M55.354,94.29
		c-12.353,0-22.331-9.979-22.331-22.354c0-12.337,9.978-22.299,22.331-22.299c12.345,0,22.315,9.993,22.315,22.314
		C77.668,84.328,67.667,94.29,55.354,94.29z"/>
	<path fill="#686868" d="M258.373,149.848h25.72c-6.239-7.285-15.362-12.005-25.72-12.005H36.223
		c-18.783,0-34.01,15.235-34.01,34.011v36.148c0,18.799,15.228,34.002,34.01,34.002h222.15
		C258.373,215.801,258.373,149.848,258.373,149.848z M55.354,212.27c-12.353,0-22.331-10.01-22.331-22.33
		c0-12.329,9.962-22.339,22.331-22.339c12.345,0,22.315,9.993,22.315,22.339C77.668,202.26,67.667,212.27,55.354,212.27z"/>
	<g>
		<path fill="#686868" d="M312.408,162.675v89.116h85.379v38.01h-85.379v90.305h-40.1v-90.319H186.93v-38.011h85.378v-89.1
			L312.408,162.675L312.408,162.675z"/>
	</g>
	<path fill="#686868" d="M258.373,299.777h-82.196V254.77H36.223c-18.783,0-34.01,15.252-34.01,34.021v36.155
		c0,18.8,15.228,34.003,34.01,34.003h222.15C258.373,345.121,258.373,299.777,258.373,299.777z M55.354,329.203
		c-12.353,0-22.331-10.01-22.331-22.33c0-12.369,9.962-22.377,22.331-22.377c12.345,0,22.315,10.008,22.315,22.377
		C77.668,319.193,67.667,329.203,55.354,329.203z"/>
</g>
</svg>
